<svg id="Layer_1" data-name="Layer 1" xmlns="http://www.w3.org/2000/svg" viewBox="0 0 227.8 227.8"><defs><style>.cls-1{fill:#1d1d1b;stroke:#000;stroke-miterlimit:10}</style></defs><path class="cls-1" d="M194.77 113.68c-.23.21-12.68-12.41-12.52-12.69.07-.12.05-.14-.07-.07-.29.19-7.5-7-40.44-40.38-15.4-15.54-28.15-28.34-28.31-28.32S94.9 50.71 72.62 73.27l-40.5 41.06.58.46 1.14 1c1.94 1.71 7.34 5.82 10.18 7.74a122.89 122.89 0 0 0 56.28 20.76 103.88 103.88 0 0 0 13 .51c5.13 0 9.22-.09 10.87-.28 1.44-.16 3.25-.34 4-.41 8-.72 20.46-3.81 29.86-7.4 6.47-2.49 16-7.22 20.18-10 .48-.33 1-.51 1.12-.4s.23.07.11-.09.12-.39.49-.6c1-.54 5.71-3.78 8.19-5.66a16.27 16.27 0 0 1 2.56-1.74c.16 0 .25-.05.2-.12s.46-.67 2.25-2.11c.87-.67 1.48-1.11 1.39-1s-.09.26.07.14.27-.49.27-.88-.02-.64-.09-.57zm-20.27 6.19c-.23 0-.37.12-.3.23s-.16.3-.55.37-.64.24-.59.33c.16.28-3.09 2.11-3.37 1.92s-.18 0-.09.12-.37.51-1.17.93-2.4 1.25-3.72 1.92a120.91 120.91 0 0 1-14.14 6.13c-3.11 1.09-9.8 3-10.92 3.2s-2.32.47-3.47.72l-2.82.6-2.1-1.3a160.17 160.17 0 0 0-15.4-8c-4.81-2.11-16.82-6.44-17.94-6.44a1 1 0 0 1-.59-.21 25.16 25.16 0 0 0-3.55-1 128 128 0 0 0-31.73-4.27c-4.07-.07-7.39-.21-7.39-.28s.43-.32 1-.53 1.92-.81 3.11-1.35a144.46 144.46 0 0 1 22.72-7.63c10.87-2.27 13.39-2.64 22-3.34 2.28-.18 15.37-.14 17.84.07a118.06 118.06 0 0 1 38.12 9.23c5.26 2.23 15.07 7.24 15.07 7.73 0 .14.12.16.23.09a.53.53 0 0 1 .46 0c.39.18-.16.76-.71.76zm-37.02 48.87a125.29 125.29 0 0 1-36.77 10.32 8.94 8.94 0 0 0-2.12.4c0 .07 3.34 3.52 7.43 7.67l7.44 7.54 6.91-7q6.57-6.63 13.17-13.22c3.41-3.41 6.23-6.29 6.23-6.41 0-.3-.55-.13-2.29.7z" transform="translate(.5 .5)"/><path class="cls-1" d="M164.16 118.48c-.76-.35-1.86-.86-2.43-1.11a116 116 0 0 0-20.27-7.12 127.59 127.59 0 0 0-15.65-2.93c-3.2-.44-5.1-.51-12.58-.58-8.92-.07-11.76.1-17.62 1-7.52 1.12-16.65 3.11-16.38 3.58a4.5 4.5 0 0 0 1.53.32c1.47.16 10.8 2 13.14 2.62 5 1.3 10.43 3 15.55 4.85a175.51 175.51 0 0 1 22.24 10.53l2.79 1.62 3.27-.79a109.29 109.29 0 0 0 23.41-8.21c3.61-1.76 4.78-2.48 4.55-2.85a8.17 8.17 0 0 0-1.55-.93z" transform="translate(.5 .5)"/><path class="cls-1" d="M113.4 0a113.4 113.4 0 1 0 113.4 113.4A113.4 113.4 0 0 0 113.4 0zm48.93 149.67a1.7 1.7 0 0 1-.69.35c-.11 0-.14.07-.07.14.32.33-1.58 3-2 2.72-.13-.07-.16 0-.07.13.21.33-.27 1-.57.82-.11-.07-.13 0-.07.23s0 .37-.11.37c-.41 0-.6-.09-.53-.3s0-.16-.18-.16a.21.21 0 0 0-.23.21.53.53 0 0 0 .23.37c.39.23.25.65-.14.48s-.34-.09-.07.26.28.37-.09.23-.36-.07-.27.07c.18.3-1.72 2.57-2 2.39s-.17 0-.07.11-1.58 2.42-4.14 5.15c-.9.95-9.77 10-19.75 20.14l-18.1 18.39-13.11-13.27c-7.23-7.3-13.13-13.31-13.08-13.33s1.92-.17 4.21-.31a122.55 122.55 0 0 0 39.67-8.74 181.07 181.07 0 0 0 24.22-12.5l3.09-1.86c1-.6 2.29-1.37 2.86-1.74 1.08-.69 1.81-.92 1.06-.35zm39.21-35.13c-.18-.31-.23-.28-.23.07s-.09.37-.18.3-.39.21-.62.58a6.43 6.43 0 0 1-1.37 1.32 6.15 6.15 0 0 0-1.1.9c-.25.42-.62.37-1.17-.09s-.41-.32 0 .19.5.6.07 1c-.25.24-.57.35-.69.26s-.25 0-.25.23-.12.35-.32.28-.3 0-.23.14-.43.69-1.1 1.2-1.26 1-1.32 1c-.53.58-2 1.58-2.16 1.44s-.13 0-.09.18-.09.33-.32.33-.36 0-.3.14-.34.48-.91.85a3.24 3.24 0 0 0-1 .82c0 .11-.14.18-.27.18a3.57 3.57 0 0 0-1.08.7c-.43.37-.87.62-1 .55s-.19 0-.19.1a58.85 58.85 0 0 1-6.86 4.61 126.07 126.07 0 0 1-46.7 16.63 108.39 108.39 0 0 1-18.62 1.37A123.34 123.34 0 0 1 91.26 148 135.46 135.46 0 0 1 68 141.67a128.63 128.63 0 0 1-37.77-22.38c-1.44-1.23-4.85-4.22-5.24-4.54-.11-.14 17.28-17.89 44-45C93.42 45.16 113.39 25 113.46 25c.27-.05 76.41 77.38 76.27 77.52s0 .16.14.16c.34 0 1.74 1.41 1.65 1.69 0 .12 0 .14.14.07.29-.19 3.7 3.48 3.45 3.73s0 .21.3.21.5.1.46.37 0 .38.32.26.36-.05.25.39-.07.47.11.28.41-.07.8.47.53.65.53.51.16 0 .34.37.32.51.35.39.2 0 .45.3.42.61.32.72-.2.16-.34 0-.21-.24-.21-.1a1.33 1.33 0 0 0 .21.54c.16.25.21.25.32-.05s.25-.37.39-.37.16.16 0 .51-.25.51.11.18.46-.27.73.12c.42.56.42 1.07 0 .9a.37.37 0 0 0-.43.07c-.07.1.14.21.43.21s.55-.09.55-.3.07-.3.35-.07a1 1 0 0 1 .34.56c-.02.13-.14.08-.25-.1z" transform="translate(.5 .5)"/></svg>