<svg id="Layer_1" xmlns="http://www.w3.org/2000/svg" viewBox="0 0 227 227"><style>.st0{fill:#1d1d1b}</style><path class="st0" d="M128.1 86.6c-5.2-14.7-25.2-6.5-32.1-4.8l6.5 24.3c6.9-1.7 28.1-3.6 25.6-19.5zm-22.8 31.9l7.1 26.8c8.2-2.2 33.1-4.3 30.7-22.2-4.1-15.8-29.6-6.7-37.8-4.6z"/><path class="st0" d="M113.5 0C50.8 0 0 50.8 0 113.5S50.8 227 113.5 227 227 176.2 227 113.5 176.2 0 113.5 0zm24.3 154.2l5.2 20.2-12.2 3.1-5.2-20.3c-3.2.8-6.4 1.6-9.8 2.4L121 180l-12.2 3.1-5.2-20.2c-2.9.7-24.6 6.3-24.6 6.3L77.7 154s9-2.2 8.8-2.3c3.4-.9 3.7-3.6 3.5-5.2L76 91.8c-1.1-2.3-3.4-4.8-8.4-3.5.1-.2-8.8 2.3-8.8 2.3l-3.3-13S77.4 72 80 71.2l-5.2-20L87 48.1l5.1 19.8c3.3-.9 6.5-1.6 9.7-2.4l-5.1-19.9 12.2-3.1 5.2 20c16-2.7 29.2.1 34.9 13 3.8 10.3.7 18.1-5.4 23.5 9.9 1 21.8 9.9 23.5 20.8 2.6 18-10.6 29.8-29.3 34.4z"/></svg>