<svg id="Layer_1" xmlns="http://www.w3.org/2000/svg" viewBox="0 0 227 227"><style>.st0{fill:#1d1d1b}</style><path id="symbol_1_" class="st0" d="M173.9 53.2c-9.2-20.9-30.3-25.3-56.2-21L109.4 0 89.8 5.1 98 37.2c-5.2 1.3-10.4 2.4-15.7 3.9l-8.2-32-19.6 5.1 8.3 32.2c-4.2 1.2-39.6 10.3-39.6 10.3l5.4 21s14.4-4 14.3-3.7c8-2.1 11.7 1.9 13.5 5.7L79.3 168c.3 2.6-.2 6.9-5.7 8.4.3.2-14.3 3.7-14.3 3.7l2.1 24.5s35-9 39.6-10.1l8.4 32.6L129 222l-8.4-32.8c5.4-1.3 10.6-2.6 15.7-3.9l8.4 32.6 19.6-5.1-8.4-32.6c30.2-7.3 51.5-26.4 47.1-55.5-2.8-17.6-22-32-37.9-33.6 10-8.6 14.9-21.3 8.8-37.9zm-9.4 76.9c3.9 28.8-36.2 32.4-49.4 35.9l-11.5-43.1c13.3-3.6 54.3-18.2 60.9 7.2zm-24.1-58.8c4.1 25.6-30.1 28.6-41.2 31.4L88.7 63.6c11.1-2.7 43.3-16 51.7 7.7z"/></svg>