<svg id="Layer_1" data-name="Layer 1" xmlns="http://www.w3.org/2000/svg" viewBox="0 0 227.8 227.8"><defs><style>.cls-1{fill:#1d1d1b;stroke:#000;stroke-miterlimit:10}</style></defs><path class="cls-1" d="M113.4 0a113.4 113.4 0 1 0 113.4 113.4A113.4 113.4 0 0 0 113.4 0zm-.64 26.55c0 .32 54.13 53.57 54.13 53.57l-19.55 19.63-34-34L79.6 99.43 59.74 79.57zm20.34 86.85l-19.7 19.7-19.69-19.7 19.69-19.7zm-106.82.18L46 93.88l19.69 19.7L46 133.28zm87.59 86.67c0-.32-54.13-53.57-54.13-53.57l19.55-19.55 34 34L147 127.37l19.87 19.86zm66.95-67.15l-19.69-19.7 19.69-19.7 19.7 19.7z" transform="translate(.5 .5)"/></svg>