<svg id="Layer_1" data-name="Layer 1" xmlns="http://www.w3.org/2000/svg" viewBox="0 0 250 250"><defs><style>.cls-1{fill:#1d1d1b}</style></defs><path class="cls-1" d="M125 0a125 125 0 1 0 125 125A125 125 0 0 0 125 0zm85.06 181.16l-38.38 22.27a12.12 12.12 0 0 1-11.38 0l-38.38-22.27a11.7 11.7 0 0 1-5.69-10v-15.59l18-10.43v15.16a11.56 11.56 0 0 0 5.69 10l20.38 11.8a12.06 12.06 0 0 0 11.38 0l19.9-11.84a11.7 11.7 0 0 0 5.69-10v-23.65a11.54 11.54 0 0 0-5.69-10l-20.38-11.8a12.1 12.1 0 0 0-11.37 0L133.77 130l-18 10.42-26.07 15.15a12.12 12.12 0 0 1-11.38 0l-38.38-22.28a11.69 11.69 0 0 1-5.69-9.95V78.8a10.42 10.42 0 0 1 5.69-9.48L78.8 46.57a12.1 12.1 0 0 1 11.37 0l37.91 22.27a11.7 11.7 0 0 1 5.69 10v16.07l-18 10.42V89.7a11.56 11.56 0 0 0-5.69-10L89.7 67.42a12.12 12.12 0 0 0-11.38 0L57.94 79.27a11.68 11.68 0 0 0-5.68 10v23.7a11.57 11.57 0 0 0 5.68 10l20.38 12.32a12.12 12.12 0 0 0 11.38 0l26.06-15.64 18-10L160.3 94a12.06 12.06 0 0 1 11.38 0l38.38 22.27a11.69 11.69 0 0 1 5.69 10v45a11.56 11.56 0 0 1-5.69 9.89z"/></svg>