<svg id="Layer_1" data-name="Layer 1" xmlns="http://www.w3.org/2000/svg" viewBox="0 0 228.79 241.42"><defs><style>.cls-1,.cls-2,.cls-4{fill:none}.cls-1,.cls-4{stroke:#1d1d1b;stroke-miterlimit:10}.cls-1{stroke-width:3px}.cls-3{fill:#1d1d1b}.cls-4{stroke-width:2px}</style></defs><g id="Group_938" data-name="Group 938"><g id="Group_931" data-name="Group 931"><path id="Path_8577" data-name="Path 8577" d="M157.48 199.67c0 .12-.47 2-1.07 4.3s-1.08 4.1-1.08 4.18a6.72 6.72 0 0 1-1.27 0h-1.27l-1.79 4.17c-1 2.27-1.83 4.38-1.95 4.7l-.24.56-.84-1.36-.83-1.35v-11l-.32.08c-.68.16-5.49.8-7.6 1a108.9 108.9 0 0 1-26.14-.56c-1.39-.2-2.58-.36-2.62-.32s0 2.59.08 5.73l.12 5.65-.68 1c-.36.56-.71 1-.71 1.08s-.52-.52-1.44-2.35a26.74 26.74 0 0 1-2.22-6.05l-.28-1.15-1.24.08-1.23.12-.32-1.47c-.16-.8-.36-2-.44-2.71l-.11-1.27-1-.92c-.6-.52-1.19-1-1.31-1.11a.88.88 0 0 1-.28-.68v-.48h10l.15.52.16.52 1.71.08c1 0 4 .12 6.69.2l5 .12 1.27-2 1.32-2h1.67v-8.28l-2.19-.95c-7-3.11-11.18-6.65-12.73-10.94-.32-.88-.32-1.2-.4-5.17s0-4.3.24-5.18a5.77 5.77 0 0 1 4.1-4c.67-.2 2.46-.2 11.85-.2h11.06l1.24.59a7 7 0 0 1 3 2.35c1 1.27 1.23 2.27 1.23 4.7a35.58 35.58 0 0 1-.59 7.63 16.72 16.72 0 0 1-2.31 4.58 21.22 21.22 0 0 1-8.91 6.24l-1 .36v8.36l.88.08.87.08 1.2 1.79 1.15 1.79h5.33c2.95 0 5.53 0 5.77.08.4.08.48 0 .88-.64l.47-.72H153c3.45-.06 4.48.02 4.48.14z" transform="translate(-10.6 -5.04)"/><path id="Path_8578" data-name="Path 8578" d="M136.48 211.09c-.76.44-1.28.64-1.39.56s-.68-.52-1.28-1l-1.07-.87-1.12 1.22c-2.42 2.63-2.5 2.75-3.22 2.79-1.11.12-1.35-.08-2.7-2.11-.72-1-1.28-1.91-1.28-1.91s-.51-.08-1.11-.12l-1.11-.12-.52 1.07-.52 1.08-.91-.28a18.54 18.54 0 0 1-2.11-.84l-1.2-.59v-2.27h21.17v1.07c.08 1.37.12 1.33-1.63 2.32z" transform="translate(-10.6 -5.04)"/></g><path id="Path_8579" data-name="Path 8579" class="cls-1" d="M234.61 162.3a1.43 1.43 0 0 1 0-.26.74.74 0 0 0-.65-.67 83.72 83.72 0 0 0-59.85 18.3.73.73 0 0 1-1.16-.37c-1.69-6.1-11.66-35.8-45.5-35.8s-48.7 29.91-51.29 35.87a.73.73 0 0 1-1.2.2c-20.65-21.45-47.73-20.29-58.29-18.85a.75.75 0 0 0-.63.7v.13c-.31 5.69-.16 8.4.79 12 2.94 11.19 12 23.51 26.25 35.6 23.3 19.78 54.89 34.06 78.82 35.71 25 1.69 61.78-12.87 86.3-34.14a125 125 0 0 0 10.8-10.9c2.43-2.83 6.05-7.7 5.77-7.7-.08 0 0-.07.16-.15s.23-.2.16-.28 0-.16.15-.19.2-.12.16-.2 0-.16.16-.2a.18.18 0 0 0 .12-.23c0-.08 0-.16.07-.16s.16-.12.16-.2.08-.19.16-.19a.17.17 0 0 0 .16-.16 3.66 3.66 0 0 1 .51-.9c.59-.9 2.94-5.1 3.26-5.81a54.15 54.15 0 0 0 4.32-14.09 48 48 0 0 0 .29-7.06z" transform="translate(-10.6 -5.04)"/><path id="Path_8580" data-name="Path 8580" class="cls-2" d="M14.58 161a36.47 36.47 0 0 0-4 .76" transform="translate(-10.6 -5.04)"/><path id="Path_8581" data-name="Path 8581" class="cls-2" d="M239.4 162.2s-1.28-.28-3.54-.52" transform="translate(-10.6 -5.04)"/><path id="Path_8583" data-name="Path 8583" class="cls-2" d="M166.79 49.29c-.08.08-.12.2-.2.28" transform="translate(-10.6 -5.04)"/><path id="Path_8584" data-name="Path 8584" class="cls-2" d="M219.11 102.48c-.2.56-.28.84-.28.84" transform="translate(-10.6 -5.04)"/><path id="Path_8588" data-name="Path 8588" class="cls-2" d="M86.23 50.84c-.4-.55-.83-1.11-1.23-1.67" transform="translate(-10.6 -5.04)"/><path id="Path_8589" data-name="Path 8589" class="cls-2" d="M30.49 104c.44 1.36.72 2.07.72 2.07" transform="translate(-10.6 -5.04)"/><path class="cls-3" d="M235.62 158.5c-.08-1.79-.24-4.3-.36-5.53a116.78 116.78 0 0 0-15.08-48.46 12.93 12.93 0 0 1-.87-1.67 2.36 2.36 0 0 1-.16-.32c1.23-3.7 6.28-19.17 10.3-36.88 5.45-24 8.91-52.11-1.67-60.55 0 0-18.3-1.35-42.81 22.68a164.24 164.24 0 0 0-18.14 21.52l-1.71-.55a123.48 123.48 0 0 0-30.39-5.89c-3.11-.24-14.68-.24-18.46 0a106.89 106.89 0 0 0-30.12 5.93l-1.15.39a161.77 161.77 0 0 0-18.7-21.36C40.8 3.66 21.82 5.05 21.82 5.05 10.6 13.77 14.42 43.13 20.23 68c3.82 16.38 8.51 30.82 10.26 36a7.12 7.12 0 0 1-.43.88c-9.27 18.81-14.29 36.91-15.48 56.12 10.38-1.51 39-3.22 60.43 19.86 0 0 14.17-37.4 52.36-37.4s46.34 37.4 46.34 37.4a84.83 84.83 0 0 1 62.11-19.22c-.04-.76-.12-1.95-.2-3.14zM81.06 89.79c2.78.4 13.92 4.38 11.93 12.73s-4.77 6.77-6.36 7.16-8.75 0-8.75 0-12.73.8-11.14-9.15 11.53-11.14 14.32-10.74zM38 89S23.13 51.84 27 30.59a20.55 20.55 0 0 1 3.7-9.11s16.87 1.67 44.08 31.91a78 78 0 0 0-12.09 7.84.14.14 0 0 1-.08 0A95.67 95.67 0 0 0 38 89zm63.14 55.26c-.24.47-1.43 1-2.79 1.19a44.66 44.66 0 0 1-7.83-.2 82.23 82.23 0 0 1-23.91-6.88 30.14 30.14 0 0 1-8.24-5.53l-1.11-1.16-.12-1.51a41.31 41.31 0 0 1 .16-8.23 10.89 10.89 0 0 1 1.23-3.5c.32-.4.32-.4 1.75-.4a17.37 17.37 0 0 1 5.61 1c4.9 1.51 12.18 5.17 21 10.51 7.32 4.37 10.06 6.52 12.17 9.46 1.49 1.9 2.45 4.49 2.09 5.29zm59.48-43.77c1.59-9.94 11.53-11.14 14.32-10.74s13.92 4.38 11.93 12.73-4.77 6.77-6.36 7.16-8.75 0-8.75 0-12.76.84-11.13-9.11zm34.25 30.6c-.12.63-2 2.54-3.86 3.94-5.49 4-15.32 7.75-25.3 9.54-5.69 1-11.38 1.2-13.09.36-1.11-.56-1.27-1-.88-2.43.84-3 3.55-6.24 7.76-9.3 2.15-1.56 10.86-6.85 14.92-9.08 6.68-3.66 12.1-5.84 15.76-6.36a8 8 0 0 1 3 0c.72.28 1.51 2.39 1.83 4.93a64.66 64.66 0 0 1-.13 8.44zm-6.6-69.9h-.08a74.79 74.79 0 0 0-11.7-7.84c26.3-30.24 42.57-31.91 42.57-31.91a21.65 21.65 0 0 1 3.58 9.11C226.35 51.8 212 89 212 89a94.83 94.83 0 0 0-23.72-27.77z" transform="translate(-10.6 -5.04)"/></g><g id="Group_938-2" data-name="Group 938"><g id="Group_934" data-name="Group 934"><g id="Group_933" data-name="Group 933"><path id="Path_8586" data-name="Path 8586" class="cls-4" d="M212 89a94.46 94.46 0 0 0-23.75-27.81c16.63-31.15 31.27-31.07 34.41-30.68C226.39 51.84 212 89 212 89z" transform="translate(-10.6 -5.04)"/></g></g><g id="Group_937" data-name="Group 937"><g id="Group_936" data-name="Group 936"><path id="Path_8591" data-name="Path 8591" class="cls-4" d="M62.6 61.23A95.37 95.37 0 0 0 38 89S23.13 51.84 27 30.55c3.18-.39 18.37-.47 35.6 30.68z" transform="translate(-10.6 -5.04)"/></g></g></g></svg>