<svg id="Layer_1" data-name="Layer 1" xmlns="http://www.w3.org/2000/svg" viewBox="0 0 226.78 226.78"><defs><style>.cls-1{fill:none}.cls-1,.cls-3,.cls-4{stroke:#1d1d1b;stroke-miterlimit:10}.cls-1,.cls-4{stroke-width:2px}.cls-2,.cls-3,.cls-4{fill:#1d1d1b}</style></defs><path class="cls-1" d="M91.76 134.43l-.58.52zm-3.55 3.51l-.22.23zm1.16-1.24l-.38.39zm3.63-3.34l-.67.55zm2.79-2c-.31.2-.61.41-.91.62.3-.21.6-.42.91-.62zm-1.41.98c-.26.19-.52.38-.77.58.25-.2.51-.39.77-.58zm-16.27 16.14c-.35-.33-.7-.65-1.06-1 .36.35.71.67 1.06 1zm-31.8-11.64zm-1.16.03zm54.66-7.79a36.31 36.31 0 0 0-3.89 2.19 36.31 36.31 0 0 1 3.89-2.19zm-24.25 17.19c-9.72-7.66-20.66-9.4-28.46-9.44 7.81.05 18.76 1.8 28.46 9.44zm1.27 1.05c-.4-.34-.79-.67-1.19-1 .36.33.79.68 1.19 1zm46.83-20.54h-.17zm-1.88-.44l-.31-.06zm-75.09 10.49zM119.78 126l-.39-.06zm-18.42 2.38l-1.1.48zm16.24-2.6h-.37c.12-.02.24 0 .37 0zm34.33 20.96a47.62 47.62 0 0 1 21.82-8.64 47.49 47.49 0 0 0-21.9 8.67s.06-.01.08-.03zm22.69-8.74l-.35.05zm-61.84-12.25l-1 .08zm-9.78 1.98c-.37.13-.73.26-1.09.41.4-.14.76-.28 1.09-.41zm3.69-1.09l-1.12.29zm-1.87.5l-1.1.35zm5.85-1.2c-.38 0-.74.1-1.1.15.36-.09.72-.09 1.1-.15zm-2.04.3zM90.05 136l.49-.47z"/><path class="cls-2" d="M144.47 103.21a42.67 42.67 0 0 0 5.82 0c1.06-.27 2.91.79 4.23-4.76s-6.08-8.2-7.93-8.46-8.46.53-9.52 7.14 7.4 6.08 7.4 6.08zm-69.81-6.08c-1 6.61 7.41 6.08 7.41 6.08a42.53 42.53 0 0 0 5.81 0c1.06-.27 2.91.79 4.24-4.76S86 90.25 84.18 90s-8.46.52-9.52 7.13zm-.55 12.35a11.29 11.29 0 0 0-3.73-.69c-.95 0-.95 0-1.16.26a7.12 7.12 0 0 0-.82 2.33 27.86 27.86 0 0 0-.11 5.47l.08 1 .74.76a20 20 0 0 0 5.47 3.68 54.63 54.63 0 0 0 15.9 4.57 29.75 29.75 0 0 0 5.21.14 2.92 2.92 0 0 0 1.85-.8c.23-.53-.4-2.24-1.35-3.46-1.4-2-3.23-3.39-8.09-6.29-5.9-3.54-10.74-5.97-13.99-6.97z"/><path class="cls-1" d="M47.81 56.35C48 69 54 85.48 55.33 88.86 54 85.48 48 69 47.81 56.35zm66.88 69.34z"/><path class="cls-3" d="M155.44 71a63 63 0 0 1 15.76 18.48A62.57 62.57 0 0 0 155.44 71c11-20.62 20.71-20.65 22.85-20.39a14.26 14.26 0 0 0-2.38-6s-10.81 1.11-28.29 21.21a48.8 48.8 0 0 1 7.77 5.18z"/><path class="cls-1" d="M78.44 148.79l1 1z"/><path class="cls-2" d="M113.39 0a113.39 113.39 0 1 0 113.39 113.39A113.39 113.39 0 0 0 113.39 0zM40 137.35A95.82 95.82 0 0 1 50.28 100a4 4 0 0 0 .29-.59c-1.16-3.46-4.28-13.06-6.82-24-3.86-16.5-6.4-36 1.06-41.8 0 0 12.61-.93 29.56 15.12A107 107 0 0 1 86.83 63l.74-.26a71 71 0 0 1 20-3.94c2.52-.16 10.21-.16 12.27 0a82.24 82.24 0 0 1 20.21 3.91l1.13.37a109.79 109.79 0 0 1 12.06-14.31c16.29-16 28.45-15.07 28.45-15.07 7 5.61 4.74 24.28 1.11 40.25-2.67 11.76-6 22-6.85 24.51 0 0 .06.13.11.21a8.62 8.62 0 0 0 .58 1.11 77.41 77.41 0 0 1 10 32.21c.08.82.19 2.48.24 3.67.05.8.11 1.59.13 2.12 0 0 .15.44.09.27 0 .09 0 .06.05.2a.3.3 0 0 1 0 .11 32.83 32.83 0 0 1-.19 4.76 36.37 36.37 0 0 1-2.91 9.49c-.21.47-1.8 3.3-2.2 3.91a3.05 3.05 0 0 0-.34.61.11.11 0 0 1-.11.1c-.05 0-.1.08-.1.14s-.05.13-.11.13a.06.06 0 0 0-.05.1.11.11 0 0 1-.08.16c-.11 0-.13.08-.11.14s0 .1-.1.13-.13.1-.11.13 0 .13-.1.18-.16.11-.11.11a39.48 39.48 0 0 1-3.89 5.18 82.89 82.89 0 0 1-7.31 7.33c-16.52 14.32-41.32 24.13-58.13 23-16.12-1.11-37.41-10.74-53.1-24.06-9.59-8.14-15.7-16.45-17.69-24a23.16 23.16 0 0 1-.53-8.06.28.28 0 0 1 0-.09m149.47.35l-.9-.61"/><path class="cls-4" d="M72.57 71.23c-5 3.86-12.43 9.92-17.35 18.48 4.92-8.54 12.32-14.62 17.32-18.45a52 52 0 0 1 8-5.21c-18.09-20.09-29.3-21.21-29.3-21.21a13.57 13.57 0 0 0-2.45 6c2.21-.26 12.34-.3 23.78 20.39z"/><path class="cls-2" d="M131.75 126.66c1.14.56 4.92.45 8.7-.24 6.64-1.19 13.17-3.67 16.82-6.34a9 9 0 0 0 2.56-2.62 41.1 41.1 0 0 0 .08-5.58c-.21-1.69-.74-3.09-1.21-3.28a5.6 5.6 0 0 0-2 0c-2.43.35-6 1.8-10.47 4.23-2.69 1.48-8.48 5-9.91 6-2.81 2-4.6 4.21-5.16 6.19-.25.98-.16 1.27.59 1.64zm-.48 36.66h-3l-.32.48c-.26.45-.31.47-.58.42s-1.88-.05-3.83-.05H120l-.76-1.19-.8-1.19-.58-.06h-.58v-5.55l.63-.24a14.17 14.17 0 0 0 5.93-4.15 11 11 0 0 0 1.53-3 23.11 23.11 0 0 0 .4-5.08 4.4 4.4 0 0 0-.82-3.12 4.67 4.67 0 0 0-2-1.56l-.82-.39h-7.35c-6.24 0-7.43 0-7.88.13a3.84 3.84 0 0 0-2.72 2.7c-.19.58-.19.82-.16 3.44s0 2.85.26 3.43c1 2.86 3.79 5.21 8.47 7.27l1.45.64v5.5h-1.11l-.87 1.32-.85 1.32-3.3-.08c-1.8-.05-3.81-.1-4.44-.13l-1.14-.05-.11-.34-.1-.35h-6.61v.32a.6.6 0 0 0 .18.45c.08.05.48.39.87.74l.69.6.08.85c0 .45.19 1.27.29 1.8l.21 1 .82-.08.82-.06.19.77a17.78 17.78 0 0 0 1.48 4c.61 1.22.87 1.64.95 1.56s.24-.34.48-.71l.45-.69-.08-3.76c-.06-2.08-.08-3.78-.06-3.8a17 17 0 0 1 1.75.21 72.12 72.12 0 0 0 17.37.37c1.4-.13 4.6-.56 5-.66l.21-.06v7.33l.56.9.55.9.16-.37c.08-.21.66-1.62 1.3-3.12l1.16-2.75h.9a4.72 4.72 0 0 0 .84 0s.32-1.27.72-2.78.71-2.77.71-2.85-.72-.33-3-.23z"/><path class="cls-2" d="M121.36 168.74h-14v1.51l.79.39a14.08 14.08 0 0 0 1.4.56l.61.18.34-.71.35-.71.74.08c.4 0 .74.07.74.07s.37.59.85 1.27c.89 1.35 1 1.48 1.79 1.4.48 0 .53-.1 2.15-1.85l.74-.79.71.58c.4.29.77.61.85.64s.42-.08.92-.37c1.16-.66 1.14-.64 1.11-1.48z"/><path class="cls-1" d="M107.51 126.46l-.82.18zm-3.79 1.03zm1.85-.56l-.75.21zm4-.84c-.32 0-.63.09-.94.15.31-.06.62-.1.94-.15zm13.92.64q-.83-.21-1.71-.39.89.18 1.71.39zm-2.02-.45zm52.8 11.72l-.52.07zm-59.58-12.31c-.64 0-1.28 0-1.91.06.63-.04 1.22-.05 1.91-.06zm4.7.31c-.59-.07-1.19-.12-1.79-.17.6 0 1.2.05 1.79.17zm-7.6-.17c-.38 0-.76.06-1.12.11.33-.05.74-.07 1.12-.11zm-72.18 11.66a46.15 46.15 0 0 1 5.37-.63 46.17 46.17 0 0 0-5.37.63zm6.18-.64h-.64zm99.85 12.53c-1-3.47-6.08-18.46-22-22.6 18 4.71 22.11 23.32 22.11 23.32.18-.15 8.15-4.7 8.33-4.85-.25.12-8.35 4.42-8.44 4.13zm-68.59-1.86l-.22-.2zm97.57-9.52a62.75 62.75 0 0 1 13.1-.23h-.09a63.06 63.06 0 0 0-13.01.23zM115 125.68c.76 0 1.51 0 2.25.07-.73 0-1.47-.07-2.24-.07zm-26 11.41c-.27.28-.53.56-.78.85.24-.29.5-.57.78-.85zm-10.56 11.7l-.33-.31zM102 128.14l-.59.24zM79.63 150l-.24-.25c.26.26.52.52.77.8A44.89 44.89 0 0 1 88 138.17a46.29 46.29 0 0 0-7.55 11.68.5.5 0 0 1-.82.15zm-32.94-13.17zm28.95 9.5l-.08-.06zm13.73-9.63l.68-.69zm-41.87.13zm46.11-3.91zm6.65-4.06l-.45.22zM94.88 132l-.5.36zm-2.51 1.91l-.61.52zM91.18 135c-.22.19-.43.39-.64.59.21-.25.46-.45.64-.59zm4.74-3.73l-.13.09zm75.19-42.93S180.39 64 178 50c2.34 13.79-6.67 37.77-6.89 38.34zM48.23 50.61a30.07 30.07 0 0 0-.41 5.74c0-2 1.8-11 2.12-12.78z"/></svg>